<svg width="322" height="178" viewBox="0 0 322 178" fill="none" xmlns="http://www.w3.org/2000/svg">
<path fill-rule="evenodd" clip-rule="evenodd" d="M32.075 1.67862C32.075 3.9637 68.6512 67.4176 74.235 74.8172C74.7155 75.4529 79.3409 71.8751 84.5139 66.8651L93.9203 57.7569L65.0567 28.8287C38.4507 2.16406 32.075 -3.08196 32.075 1.67862ZM265.626 37.2341C236.835 57.6604 212.824 73.959 212.271 73.4548C211.716 72.9532 213.227 67.6375 215.627 61.6459C221.098 47.9837 221.133 41.6595 215.772 36.3008C207.549 28.0884 200.589 31.4678 176.146 55.555C152.67 78.6847 149.288 79.2721 159.929 58.3711C161.956 54.3856 163.615 48.8419 163.615 46.0472C163.615 38.4732 154.246 31.1567 146.944 33.026C140.673 34.6352 -2.27838 175.672 0.0275983 177.978C0.725566 178.673 25.4363 162.541 54.9388 142.128C84.4441 121.715 108.975 105.39 109.453 105.851C109.931 106.309 108.213 112.626 105.633 119.881C100.352 134.734 101.625 141.119 110.537 144.48C119.173 147.736 124.277 144.493 149.637 119.626L171.899 97.7968L165.073 113.296C161.317 121.82 158.246 130.338 158.246 132.226C158.246 138.901 165.459 145.403 172.866 145.403C179.083 145.403 192.393 133.382 251.178 74.6831C290.13 35.7885 322 3.04913 322 1.93341C322 0.817687 321.093 -0.0512845 319.987 0.00235585C318.881 0.0559962 294.417 16.8106 265.626 37.2341ZM238.692 111.298L229.576 120.693L258.998 150.182C275.18 166.397 288.796 178.542 289.255 177.166C289.845 175.398 254.78 111.553 248.265 102.531C248.015 102.185 243.707 106.13 238.692 111.298Z" fill="white"/>
</svg>
